<svg width="28" height="29" viewBox="0 0 28 29" fill="none" xmlns="http://www.w3.org/2000/svg">
<path d="M10.5 17.5625C11.2249 17.5625 11.8125 16.9749 11.8125 16.25C11.8125 15.5251 11.2249 14.9375 10.5 14.9375C9.77513 14.9375 9.1875 15.5251 9.1875 16.25C9.1875 16.9749 9.77513 17.5625 10.5 17.5625Z" fill="white"/>
<path d="M17.5 17.5625C18.2249 17.5625 18.8125 16.9749 18.8125 16.25C18.8125 15.5251 18.2249 14.9375 17.5 14.9375C16.7751 14.9375 16.1875 15.5251 16.1875 16.25C16.1875 16.9749 16.7751 17.5625 17.5 17.5625Z" fill="white"/>
<path fill-rule="evenodd" clip-rule="evenodd" d="M13.9935 9.25001C12.0966 9.23598 10.2092 9.51769 8.39912 10.085C7.93799 10.2295 7.44701 9.97285 7.30249 9.51172C7.15796 9.05059 7.41463 8.55961 7.87576 8.41508C9.8573 7.79405 11.9234 7.48533 13.9999 7.50001C16.0764 7.48533 18.1426 7.79405 20.1241 8.41508C20.5853 8.55961 20.8419 9.05059 20.6974 9.51172C20.5529 9.97285 20.0619 10.2295 19.6008 10.085C17.7907 9.51769 15.9032 9.23598 14.0064 9.25001H13.9935Z" fill="white"/>
<path fill-rule="evenodd" clip-rule="evenodd" d="M7.30249 19.4883C7.44701 19.0272 7.93799 18.7705 8.39912 18.915C10.2092 19.4823 12.0966 19.764 13.9935 19.75H14.0064C15.9032 19.764 17.7907 19.4823 19.6008 18.915C20.0619 18.7705 20.5529 19.0272 20.6974 19.4883C20.8419 19.9494 20.5853 20.4404 20.1241 20.5849C18.1426 21.206 16.0764 21.5147 13.9999 21.5C11.9234 21.5147 9.8573 21.206 7.87576 20.5849C7.41463 20.4404 7.15796 19.9494 7.30249 19.4883Z" fill="white"/>
<path fill-rule="evenodd" clip-rule="evenodd" d="M17.6925 4.70969C18.0692 4.49733 18.5108 4.43097 18.9332 4.52323C20.086 4.77308 21.2147 5.12358 22.3063 5.57071C22.552 5.66546 22.7727 5.81547 22.9512 6.00921C23.1317 6.20504 23.2641 6.44013 23.3381 6.69588L27.0444 19.0722C27.1411 19.3946 27.1433 19.738 27.0509 20.0617C26.9584 20.3853 26.7751 20.6757 26.5227 20.8984L26.5182 20.9024C24.7091 22.4764 22.2579 23.6679 19.4737 24.3504C19.087 24.4489 18.678 24.4106 18.3162 24.2418C17.9559 24.0736 17.6647 23.7864 17.4916 23.4288L16.1718 20.8112C15.9543 20.3796 16.1277 19.8535 16.5593 19.6359C16.9908 19.4184 17.5169 19.5918 17.7345 20.0233L19.0579 22.6483L19.0589 22.6503C21.6295 22.0199 23.8119 20.9374 25.3694 19.5821L25.9438 20.2422L25.3649 19.5861C25.3665 19.5847 25.3676 19.5829 25.3682 19.5809C25.3688 19.5789 25.3687 19.5768 25.3681 19.5748L21.6616 7.1977C21.6585 7.19647 21.6554 7.19522 21.6523 7.19395C20.6523 6.78368 19.618 6.46223 18.5616 6.23334L18.5597 6.23292C18.5571 6.23235 18.5544 6.23276 18.552 6.23408C18.5499 6.23527 18.5483 6.23712 18.5473 6.23933L17.6855 8.84654C17.5339 9.30538 17.0389 9.55439 16.5801 9.40272C16.1213 9.25106 15.8723 8.75615 16.0239 8.29732L16.8905 5.67565C17.0301 5.26606 17.3156 4.92221 17.6925 4.70969Z" fill="white"/>
<path fill-rule="evenodd" clip-rule="evenodd" d="M9.44794 6.23408C9.4456 6.23276 9.44285 6.23235 9.44023 6.23292L9.43832 6.23334C8.38191 6.46223 7.34769 6.78368 6.34765 7.19395C6.34456 7.19522 6.34147 7.19647 6.33837 7.1977L2.63188 19.5745C2.63128 19.5765 2.63119 19.5789 2.63177 19.5809C2.63229 19.5827 2.63326 19.5844 2.63459 19.5857C4.19182 20.9393 6.37266 22.0204 8.94109 22.6503L8.94203 22.6483L10.2655 20.0233C10.483 19.5918 11.0092 19.4184 11.4407 19.6359C11.8722 19.8535 12.0457 20.3797 11.8281 20.8112L10.5084 23.4288C10.3352 23.7864 10.0441 24.0736 9.68375 24.2418C9.32197 24.4106 8.91296 24.4489 8.52622 24.3504C5.74203 23.6679 3.29083 22.4764 1.48179 20.9023L1.47726 20.8984C1.22486 20.6757 1.04157 20.3853 0.949102 20.0617C0.856654 19.7381 0.858855 19.3948 0.955443 19.0725C0.955418 19.0726 0.955467 19.0724 0.955443 19.0725L4.66185 6.6959C4.73581 6.44014 4.86824 6.20504 5.04871 6.00921C5.22726 5.81546 5.44795 5.66545 5.69366 5.57071C6.78554 5.12346 7.91456 4.77288 9.06775 4.52302C9.48987 4.43107 9.93108 4.49749 10.3074 4.70969C10.6844 4.92221 10.9698 5.26607 11.1094 5.67566L11.112 5.68324L11.976 8.29732C12.1277 8.75615 11.8787 9.25106 11.4198 9.40272C10.961 9.55439 10.4661 9.30538 10.3144 8.84654L9.45263 6.23932C9.45169 6.23711 9.45005 6.23527 9.44794 6.23408Z" fill="white"/>
<path d="M10.5 17.5625C11.2249 17.5625 11.8125 16.9749 11.8125 16.25C11.8125 15.5251 11.2249 14.9375 10.5 14.9375C9.77513 14.9375 9.1875 15.5251 9.1875 16.25C9.1875 16.9749 9.77513 17.5625 10.5 17.5625Z" fill="white"/>
<path d="M17.5 17.5625C18.2249 17.5625 18.8125 16.9749 18.8125 16.25C18.8125 15.5251 18.2249 14.9375 17.5 14.9375C16.7751 14.9375 16.1875 15.5251 16.1875 16.25C16.1875 16.9749 16.7751 17.5625 17.5 17.5625Z" fill="white"/>
<path fill-rule="evenodd" clip-rule="evenodd" d="M13.9935 9.25001C12.0966 9.23598 10.2092 9.51769 8.39912 10.085C7.93799 10.2295 7.44701 9.97285 7.30249 9.51172C7.15796 9.05059 7.41463 8.55961 7.87576 8.41508C9.8573 7.79405 11.9234 7.48533 13.9999 7.50001C16.0764 7.48533 18.1426 7.79405 20.1241 8.41508C20.5853 8.55961 20.8419 9.05059 20.6974 9.51172C20.5529 9.97285 20.0619 10.2295 19.6008 10.085C17.7907 9.51769 15.9032 9.23598 14.0064 9.25001H13.9935Z" fill="white"/>
<path fill-rule="evenodd" clip-rule="evenodd" d="M7.30249 19.4883C7.44701 19.0272 7.93799 18.7705 8.39912 18.915C10.2092 19.4823 12.0966 19.764 13.9935 19.75H14.0064C15.9032 19.764 17.7907 19.4823 19.6008 18.915C20.0619 18.7705 20.5529 19.0272 20.6974 19.4883C20.8419 19.9494 20.5853 20.4404 20.1241 20.5849C18.1426 21.206 16.0764 21.5147 13.9999 21.5C11.9234 21.5147 9.8573 21.206 7.87576 20.5849C7.41463 20.4404 7.15796 19.9494 7.30249 19.4883Z" fill="white"/>
<path fill-rule="evenodd" clip-rule="evenodd" d="M17.6925 4.70969C18.0692 4.49733 18.5108 4.43097 18.9332 4.52323C20.086 4.77308 21.2147 5.12358 22.3063 5.57071C22.552 5.66546 22.7727 5.81547 22.9512 6.00921C23.1317 6.20504 23.2641 6.44013 23.3381 6.69588L27.0444 19.0722C27.1411 19.3946 27.1433 19.738 27.0509 20.0617C26.9584 20.3853 26.7751 20.6757 26.5227 20.8984L26.5182 20.9024C24.7091 22.4764 22.2579 23.6679 19.4737 24.3504C19.087 24.4489 18.678 24.4106 18.3162 24.2418C17.9559 24.0736 17.6647 23.7864 17.4916 23.4288L16.1718 20.8112C15.9543 20.3796 16.1277 19.8535 16.5593 19.6359C16.9908 19.4184 17.5169 19.5918 17.7345 20.0233L19.0579 22.6483L19.0589 22.6503C21.6295 22.0199 23.8119 20.9374 25.3694 19.5821L25.9438 20.2422L25.3649 19.5861C25.3665 19.5847 25.3676 19.5829 25.3682 19.5809C25.3688 19.5789 25.3687 19.5768 25.3681 19.5748L21.6616 7.1977C21.6585 7.19647 21.6554 7.19522 21.6523 7.19395C20.6523 6.78368 19.618 6.46223 18.5616 6.23334L18.5597 6.23292C18.5571 6.23235 18.5544 6.23276 18.552 6.23408C18.5499 6.23527 18.5483 6.23712 18.5473 6.23933L17.6855 8.84654C17.5339 9.30538 17.0389 9.55439 16.5801 9.40272C16.1213 9.25106 15.8723 8.75615 16.0239 8.29732L16.8905 5.67565C17.0301 5.26606 17.3156 4.92221 17.6925 4.70969Z" fill="white"/>
<path fill-rule="evenodd" clip-rule="evenodd" d="M9.44794 6.23408C9.4456 6.23276 9.44285 6.23235 9.44023 6.23292L9.43832 6.23334C8.38191 6.46223 7.34769 6.78368 6.34765 7.19395C6.34456 7.19522 6.34147 7.19647 6.33837 7.1977L2.63188 19.5745C2.63128 19.5765 2.63119 19.5789 2.63177 19.5809C2.63229 19.5827 2.63326 19.5844 2.63459 19.5857C4.19182 20.9393 6.37266 22.0204 8.94109 22.6503L8.94203 22.6483L10.2655 20.0233C10.483 19.5918 11.0092 19.4184 11.4407 19.6359C11.8722 19.8535 12.0457 20.3797 11.8281 20.8112L10.5084 23.4288C10.3352 23.7864 10.0441 24.0736 9.68375 24.2418C9.32197 24.4106 8.91296 24.4489 8.52622 24.3504C5.74203 23.6679 3.29083 22.4764 1.48179 20.9023L1.47726 20.8984C1.22486 20.6757 1.04157 20.3853 0.949102 20.0617C0.856654 19.7381 0.858855 19.3948 0.955443 19.0725C0.955418 19.0726 0.955467 19.0724 0.955443 19.0725L4.66185 6.6959C4.73581 6.44014 4.86824 6.20504 5.04871 6.00921C5.22726 5.81546 5.44795 5.66545 5.69366 5.57071C6.78554 5.12346 7.91456 4.77288 9.06775 4.52302C9.48987 4.43107 9.93108 4.49749 10.3074 4.70969C10.6844 4.92221 10.9698 5.26607 11.1094 5.67566L11.112 5.68324L11.976 8.29732C12.1277 8.75615 11.8787 9.25106 11.4198 9.40272C10.961 9.55439 10.4661 9.30538 10.3144 8.84654L9.45263 6.23932C9.45169 6.23711 9.45005 6.23527 9.44794 6.23408Z" fill="white"/>
</svg>
